<svg xmlns="http://www.w3.org/2000/svg" id="Layer_1" height="512" viewBox="0 0 512 512" width="512"><path clip-rule="evenodd" d="m189.279 107.079h284.235l-168.821 115.733-114.834-78.723c4.372-11.707 4.409-24.94-.58-37.01zm-74.337 67.172 41.43-25.226c12.295-7.486 16.376-23.458 9.178-35.925l-37.403-64.784c-3.837-6.647-9.645-10.923-17.131-12.613-7.487-1.691-14.567-.326-20.889 4.027l-68.212 46.964c-32.469 114.404 113.44 362.084 225.344 390.306l74.778-35.591c6.93-3.298 11.653-8.748 13.932-16.077s1.48-14.496-2.358-21.143l-37.403-64.784c-7.197-12.467-23.07-16.919-35.701-10.014l-42.561 23.266c-42.09-37.433-91.63-123.238-103.004-178.406zm379.216-52.288-182.715 125.258c-4.275 2.918-9.768 2.69-13.741-.165l-121.3-83.155c-2.298 2.071-4.815 3.959-7.549 5.624l-26.204 15.954c13.767 44.43 47.832 103.432 79.426 137.569l26.919-14.716c24.052-13.148 54.292-4.666 67.997 19.073l23.196 40.176h135.108c10.668 0 19.396-8.728 19.396-19.396v-221.71c.001-1.552-.185-3.063-.533-4.512z" fill-rule="evenodd"></path></svg>