<svg xmlns="http://www.w3.org/2000/svg" id="Layer_1" viewBox="0 0 512 512"><path d="m343.5 221.2c-48.3-48.3-126.6-48.3-174.9 0s-48.3 126.6 0 174.9 126.6 48.3 174.9 0c48.2-48.3 48.2-126.6 0-174.9zm-141.8 215.3c-19.2-8.2-36.3-20.6-49.9-36.1l-31.3 54.2 31.8-5c2.7-.5 5.5.4 7.3 2.7l19.4 23.8zm158.6-36.1c-13.7 15.5-30.7 27.9-50 36.1l22.8 39.5 19.4-23.8c1.8-2.2 4.6-3.2 7.3-2.7l31.8 5zm-55-141c-27.2-27.2-71.3-27.2-98.5 0s-27.2 71.3 0 98.5 71.3 27.2 98.5 0 27.2-71.3 0-98.5zm-49.3-35.7c46.9 0 85 38 85 85 0 46.9-38 85-85 85-46.9 0-85-38-85-85 .1-47 38.1-85 85-85zm-39.6 90.6c-2.1-3.7-.9-8.3 2.8-10.4s8.3-.9 10.4 2.8l12.2 21.1 41.8-41.8c3-3 7.9-3 10.8 0 3 3 3 7.8 0 10.8l-48.8 48.8c-3.5 3.5-9.5 2.8-12-1.6zm216.1-201.9 15.1 31.3 34.4 4.7c5.9.8 8 8 3.9 12l-25.1 24 6.2 34.2c1 5.8-5.1 10.1-10.2 7.4l-30.6-16.4-30.6 16.4c-5 2.7-11.5-1.5-10.1-7.8l6.1-33.8-25.1-24c-4.2-4-1.9-11.2 4-12l34.3-4.7 15.1-31.3c2.5-5.3 10-5.2 12.6 0zm-340.4 0 15.1 31.3 34.4 4.7c5.8.8 8 8 3.9 12l-25.1 24 6.2 34.2c1 5.8-5.1 10.1-10.1 7.4l-30.6-16.4-30.6 16.4c-5 2.7-11.4-1.5-10.1-7.8l6.1-33.8-25.1-24c-4.2-4-1.9-11.2 4-12l34.3-4.7 15.1-31.3c2.5-5.3 10-5.2 12.5 0zm170.2-72.5 15.1 31.3 34.4 4.7c5.8.8 8 8 3.9 12l-25.1 24 6.2 34.2c1 5.8-5.1 10.1-10.2 7.4l-30.6-16.5-30.6 16.4c-5 2.7-11.4-1.5-10.1-7.8l6.1-33.8-25.1-24c-4.2-4-1.9-11.2 4-12l34.3-4.7 15.1-31.3c2.6-5.2 10.1-5.1 12.6.1z"></path></svg>