<svg xmlns="http://www.w3.org/2000/svg" xmlns:xlink="http://www.w3.org/1999/xlink" width="512" height="512" x="0" y="0" viewBox="0 0 512 512" style="enable-background:new 0 0 512 512" xml:space="preserve" class=""><g><g data-name="Layer 2"><g data-name="20.Telephone"><rect width="512" height="512" fill="#fad443" rx="131.96" transform="rotate(90 256 256)" opacity="1" data-original="#41a5ee" class=""></rect><g fill="#fff" data-name="20.Telephone"><path d="M387.39 317.59c9.86 14 14.82 40.31-11.63 66.76-48.71 48.72-133.2 8.39-194.71-53.4-61.8-61.51-102.12-146-53.41-194.72 26.45-26.45 52.82-21.49 66.77-11.62 21.67 15.33 50.44 47.38 22.88 81.88-4 5-8.51 10.38-12.2 14.71a17.55 17.55 0 0 0-2.35 19.29 155 155 0 0 0 68.77 68.77 17.55 17.55 0 0 0 19.29-2.35c4.33-3.69 9.73-8.23 14.71-12.21 34.49-27.55 66.55 1.22 81.88 22.89zM368.08 143.92c44.79 44.79 37.55 97.45 37.4 99.67a14.29 14.29 0 1 1-28.48-1.82c0-.43 1.44-47.12-29.09-77.64S270.66 135 270.23 135a14.28 14.28 0 1 1-1.82-28.51c2.22-.12 54.87-7.36 99.67 37.43z" fill="#000000" opacity="1" data-original="#ffffff" class=""></path><path d="M326.54 185.46a71 71 0 0 1 20.76 55.35 14.29 14.29 0 1 1-28.51-1.87 42.9 42.9 0 0 0-45.73-45.73 14.29 14.29 0 1 1-1.87-28.51 70.93 70.93 0 0 1 55.35 20.76z" fill="#000000" opacity="1" data-original="#ffffff" class=""></path></g></g></g></g></svg>